<svg xmlns="http://www.w3.org/2000/svg" width="164.208" height="46.2"><path data-name="Path 6595" d="M39.996 0q6.8 0 9.669 2.706t2.871 8.184v3.168a9.446 9.446 0 0 1-4.224 8.382q4.554 2.64 4.554 8.514v3.828a17.553 17.553 0 0 1-.594 4.752 8.776 8.776 0 0 1-1.947 3.6 8.648 8.648 0 0 1-3.6 2.277 16.8 16.8 0 0 1-5.541.789H1.98A1.75 1.75 0 0 1 0 44.22V1.98A1.75 1.75 0 0 1 1.98 0Zm-29.9 26.4v9.834a.758.758 0 0 0 .858.858h27.06a5.812 5.812 0 0 0 3.762-.957 3.824 3.824 0 0 0 1.122-3.069v-2.508a3.878 3.878 0 0 0-1.221-3.1Q40.458 26.4 37.158 26.4Zm0-7.194h27.06q3.3 0 4.488-.99a3.565 3.565 0 0 0 1.188-2.9v-2.244a3.68 3.68 0 0 0-1.155-3 5.832 5.832 0 0 0-3.729-.957H10.956a.758.758 0 0 0-.858.858ZM69.3 0a1.283 1.283 0 0 1 1.452 1.452v17.556h9.306q1.584 0 2.64-.1a6.338 6.338 0 0 0 1.846-.428 5.081 5.081 0 0 0 1.452-.924 12.12 12.12 0 0 0 1.386-1.518L98.734.858a2.334 2.334 0 0 1 .66-.66 2.7 2.7 0 0 1 1.254-.2h8.184q.858 0 1.023.561a1.127 1.127 0 0 1-.165 1.023l-12.8 16.566q-1.122 1.518-2.079 2.574a21.033 21.033 0 0 1-1.881 1.848 19.3 19.3 0 0 1 5.016 4.752l13.53 17.16a1.405 1.405 0 0 1 .2 1.023q-.07.695-1.06.695h-8.448a2.5 2.5 0 0 1-1.188-.2 2.334 2.334 0 0 1-.66-.66L88.176 29.634a7.1 7.1 0 0 0-2.838-2.343 12.563 12.563 0 0 0-4.554-.627H70.752v18.084A1.283 1.283 0 0 1 69.3 46.2h-7.128q-1.518 0-1.518-1.452v-43.3q0-1.452 1.518-1.452Zm93.456 0a1.283 1.283 0 0 1 1.452 1.452V7.92q0 1.518-1.452 1.518h-29.37a17.626 17.626 0 0 0-4.257.429 5.517 5.517 0 0 0-2.673 1.452 5.908 5.908 0 0 0-1.419 2.739 18.391 18.391 0 0 0-.429 4.356v9.372a18.823 18.823 0 0 0 .429 4.389 5.922 5.922 0 0 0 1.419 2.772 5.517 5.517 0 0 0 2.673 1.453 17.626 17.626 0 0 0 4.257.429h29.37a1.283 1.283 0 0 1 1.452 1.452v6.468a1.283 1.283 0 0 1-1.452 1.451H132.99a33.787 33.787 0 0 1-8.514-.924 13.008 13.008 0 0 1-5.709-3 12.143 12.143 0 0 1-3.234-5.412 27.813 27.813 0 0 1-1.023-8.085V17.424a27.472 27.472 0 0 1 1.023-8.052 12.149 12.149 0 0 1 3.234-5.379 13.278 13.278 0 0 1 5.709-3.036A32.676 32.676 0 0 1 132.99 0Z"/></svg>
